<svg width="25" height="24" viewBox="0 0 25 24" fill="none" xmlns="http://www.w3.org/2000/svg">
<path d="M0.75 12C0.75 18.6274 6.12258 24 12.75 24C19.3774 24 24.75 18.6274 24.75 12C24.75 5.37258 19.3774 0 12.75 0C6.12258 0 0.75 5.37258 0.75 12Z" fill="#1877F2"/>
<path d="M18.75 12C18.75 8.7 16.05 6 12.75 6C9.45 6 6.75 8.7 6.75 12C6.75 15 8.925 17.475 11.775 17.925V13.725H10.275V12H11.775V10.65C11.775 9.15 12.675 8.325 14.025 8.325C14.7 8.325 15.375 8.475 15.375 8.475V9.975H14.625C13.875 9.975 13.65 10.425 13.65 10.875V12H15.3L15 13.725H13.575V18C16.575 17.55 18.75 15 18.75 12Z" fill="white"/>
</svg>
