<svg width="25" height="24" viewBox="0 0 25 24" fill="none" xmlns="http://www.w3.org/2000/svg">
<path d="M24.25 12C24.25 5.37258 18.8774 0 12.25 0C5.62258 0 0.25 5.37258 0.25 12C0.25 18.6274 5.62258 24 12.25 24C18.8774 24 24.25 18.6274 24.25 12Z" fill="white"/>
<path fill-rule="evenodd" clip-rule="evenodd" d="M21.2494 12.209C21.2494 11.5572 21.1909 10.9305 21.0823 10.3289H12.4255V13.8843H17.3723C17.1592 15.0333 16.5116 16.0067 15.5381 16.6585V18.9647H18.5087C20.2467 17.3646 21.2494 15.0082 21.2494 12.209Z" fill="#4285F4"/>
<path fill-rule="evenodd" clip-rule="evenodd" d="M12.4256 21.1917C14.9073 21.1917 16.9879 20.3686 18.5087 18.9648L15.5381 16.6586C14.7151 17.2101 13.6622 17.5359 12.4256 17.5359C10.0316 17.5359 8.00526 15.9191 7.28248 13.7465H4.21167V16.128C5.72409 19.1319 8.8325 21.1917 12.4256 21.1917Z" fill="#34A853"/>
<path fill-rule="evenodd" clip-rule="evenodd" d="M7.28258 13.7465C7.09875 13.195 6.9943 12.6059 6.9943 12.0001C6.9943 11.3943 7.09875 10.8052 7.28258 10.2537V7.87224H4.21178C3.58926 9.11309 3.23413 10.5169 3.23413 12.0001C3.23413 13.4833 3.58926 14.887 4.21178 16.1279L7.28258 13.7465Z" fill="#FBBC05"/>
<path fill-rule="evenodd" clip-rule="evenodd" d="M12.4256 6.46432C13.775 6.46432 14.9866 6.92808 15.9392 7.83888L18.5755 5.20258C16.9837 3.7194 14.9031 2.8086 12.4256 2.8086C8.8325 2.8086 5.72409 4.86834 4.21167 7.8723L7.28248 10.2537C8.00526 8.0812 10.0316 6.46432 12.4256 6.46432Z" fill="#EA4335"/>
</svg>
