<svg width="154" height="128" viewBox="0 0 154 128" fill="none" xmlns="http://www.w3.org/2000/svg">
<path d="M119.146 22.0864C116.604 22.0864 114.073 22.4254 111.62 23.0943C108.431 16.4056 103.413 10.7572 97.1467 6.80323C90.8802 2.84928 83.6217 0.751653 76.212 0.753358C68.8024 0.751653 61.5439 2.84928 55.2773 6.80323C49.0108 10.7572 43.9928 16.4056 40.8045 23.0943C38.3469 22.4234 35.8107 22.0844 33.2632 22.0864C25.6956 22.0921 18.4399 25.1024 13.0909 30.4555C7.74179 35.8087 4.73706 43.0667 4.73706 50.6343C4.73706 51.0766 4.73706 51.5117 4.73706 51.9467C5.9045 75.9409 36.3377 75.8757 70.121 42.5202C71.6438 40.8234 73.2245 39.0976 74.8488 37.3719L69.1784 32.9776L54.7848 23.1958C54.7303 23.1593 54.6847 23.1112 54.6511 23.055C54.6175 22.9987 54.5969 22.9357 54.5906 22.8704C54.5844 22.8052 54.5927 22.7394 54.615 22.6778C54.6373 22.6162 54.673 22.5603 54.7195 22.5142L56.3002 20.9334C56.4722 20.7676 56.6838 20.6485 56.9148 20.5876C57.1458 20.5267 57.3886 20.5259 57.62 20.5854C57.62 20.5854 77.7928 26.06 83.6735 28.4384C91.1205 21.4628 100.221 15.6546 101.366 16.8365C102.512 18.0184 96.6531 26.9882 89.6847 34.4061C92.0631 40.0475 97.661 60.6554 97.661 60.6554C97.7219 60.8867 97.7219 61.1299 97.6609 61.3611C97.5999 61.5924 97.48 61.8039 97.313 61.9751L95.7322 63.5559C95.6861 63.6024 95.6302 63.6381 95.5686 63.6604C95.507 63.6827 95.4412 63.691 95.3759 63.6848C95.3107 63.6785 95.2477 63.6579 95.1914 63.6243C95.1352 63.5907 95.0871 63.5451 95.0506 63.4906L85.2905 49.0318L80.7875 43.2308L80.6207 43.3831C57.0544 66.9495 77.6695 79.204 95.9715 79.204H119.139C122.89 79.204 126.605 78.4649 130.07 77.0289C133.535 75.593 136.684 73.4883 139.336 70.8352C141.988 68.1821 144.091 65.0325 145.525 61.5663C146.959 58.1002 147.696 54.3854 147.694 50.6343C147.694 46.8853 146.956 43.1731 145.521 39.7095C144.086 36.2459 141.984 33.0988 139.333 30.4478C133.979 25.0941 126.718 22.0864 119.146 22.0864Z" fill="url(#paint0_linear_238_1377)"/>
<mask id="mask0_238_1377" style="mask-type:luminance" maskUnits="userSpaceOnUse" x="4" y="0" width="144" height="80">
<path d="M119.146 22.0864C116.604 22.0864 114.073 22.4254 111.62 23.0943C108.431 16.4056 103.413 10.7572 97.1467 6.80323C90.8802 2.84928 83.6217 0.751653 76.212 0.753358C68.8024 0.751653 61.5439 2.84928 55.2773 6.80323C49.0108 10.7572 43.9928 16.4056 40.8045 23.0943C38.3469 22.4234 35.8107 22.0844 33.2632 22.0864C25.6956 22.0921 18.4399 25.1024 13.0909 30.4555C7.74179 35.8087 4.73706 43.0667 4.73706 50.6343C4.73706 51.0766 4.73706 51.5117 4.73706 51.9467C5.9045 75.9409 36.3377 75.8757 70.121 42.5202C71.6438 40.8234 73.2245 39.0976 74.8488 37.3719L69.1784 32.9776L54.7848 23.1958C54.7303 23.1593 54.6847 23.1112 54.6511 23.055C54.6175 22.9987 54.5969 22.9357 54.5906 22.8704C54.5844 22.8052 54.5927 22.7394 54.615 22.6778C54.6373 22.6162 54.673 22.5603 54.7195 22.5142L56.3002 20.9334C56.4722 20.7676 56.6838 20.6485 56.9148 20.5876C57.1458 20.5267 57.3886 20.5259 57.62 20.5854C57.62 20.5854 77.7928 26.06 83.6735 28.4384C91.1205 21.4628 100.221 15.6546 101.366 16.8365C102.512 18.0184 96.6531 26.9882 89.6847 34.4061C92.0631 40.0475 97.661 60.6554 97.661 60.6554C97.7219 60.8867 97.7219 61.1299 97.6609 61.3611C97.5999 61.5924 97.48 61.8039 97.313 61.9751L95.7322 63.5559C95.6861 63.6024 95.6302 63.6381 95.5686 63.6604C95.507 63.6827 95.4412 63.691 95.3759 63.6848C95.3107 63.6785 95.2477 63.6579 95.1914 63.6243C95.1352 63.5907 95.0871 63.5451 95.0506 63.4906L85.2905 49.0318L80.7875 43.2308L80.6207 43.3831C57.0544 66.9495 77.6695 79.204 95.9715 79.204H119.139C122.89 79.204 126.605 78.4649 130.07 77.0289C133.535 75.593 136.684 73.4883 139.336 70.8352C141.988 68.1821 144.091 65.0325 145.525 61.5663C146.959 58.1002 147.696 54.3854 147.694 50.6343C147.694 46.8853 146.956 43.1731 145.521 39.7095C144.086 36.2459 141.984 33.0988 139.333 30.4478C133.979 25.0941 126.718 22.0864 119.146 22.0864Z" fill="white"/>
</mask>
<g mask="url(#mask0_238_1377)">
<g style="mix-blend-mode:multiply">
<path d="M141.852 76.5941C145.169 56.065 131.217 36.7333 110.688 33.4155C90.1587 30.0976 70.827 44.0501 67.5092 64.5792C64.1913 85.1082 78.1438 104.44 98.6729 107.758C119.202 111.076 138.534 97.1232 141.852 76.5941Z" fill="#00D6EE"/>
</g>
<g style="mix-blend-mode:multiply">
<path d="M34.8439 100.435C54.0345 100.435 69.5916 84.8783 69.5916 65.6877C69.5916 46.4971 54.0345 30.94 34.8439 30.94C15.6533 30.94 0.0961914 46.4971 0.0961914 65.6877C0.0961914 84.8783 15.6533 100.435 34.8439 100.435Z" fill="#00D6EE"/>
</g>
</g>
<path d="M10.8594 101.521C12.6189 101.521 14.1517 101.866 15.4578 102.555C16.7638 103.244 17.7796 104.26 18.5052 105.602C19.2308 106.945 19.5936 108.568 19.5936 110.473V120.894H15.1857V116.323H6.47866V120.894H2.12516V110.473C2.12516 108.568 2.48795 106.945 3.21353 105.602C3.93912 104.26 4.95494 103.244 6.26099 102.555C7.56704 101.866 9.09984 101.521 10.8594 101.521ZM15.1857 112.786V110.065C15.1857 108.487 14.7957 107.298 14.0157 106.5C13.2357 105.684 12.1745 105.276 10.8322 105.276C9.4717 105.276 8.40146 105.684 7.62146 106.5C6.8596 107.298 6.47866 108.487 6.47866 110.065V112.786H15.1857ZM31.0188 117.711C31.7807 117.711 32.4518 117.602 33.0323 117.384C33.6309 117.148 34.1842 116.785 34.6921 116.296L36.9505 118.745C35.5718 120.323 33.5584 121.112 30.91 121.112C29.2593 121.112 27.799 120.794 26.5292 120.159C25.2595 119.506 24.2799 118.608 23.5906 117.466C22.9013 116.323 22.5567 115.026 22.5567 113.575C22.5567 112.142 22.8923 110.854 23.5634 109.711C24.2527 108.55 25.1869 107.652 26.366 107.017C27.5632 106.364 28.9055 106.038 30.393 106.038C31.7897 106.038 33.0595 106.337 34.2023 106.936C35.3451 107.516 36.2521 108.369 36.9233 109.493C37.6126 110.6 37.9572 111.915 37.9572 113.439L27.1279 115.534C27.4362 116.259 27.9169 116.804 28.57 117.166C29.2411 117.529 30.0574 117.711 31.0188 117.711ZM30.393 109.248C29.3228 109.248 28.452 109.593 27.7809 110.282C27.1097 110.972 26.756 111.924 26.7197 113.139L33.8486 111.752C33.649 110.99 33.2409 110.382 32.6242 109.929C32.0074 109.475 31.2637 109.248 30.393 109.248ZM44.8646 108.187C45.3725 107.48 46.0527 106.945 46.9053 106.582C47.776 106.219 48.7737 106.038 49.8983 106.038V109.956C49.4267 109.92 49.1093 109.901 48.946 109.901C47.7306 109.901 46.7783 110.246 46.089 110.935C45.3997 111.607 45.055 112.622 45.055 113.983V120.894H40.8104V106.255H44.8646V108.187ZM59.255 121.112C57.7131 121.112 56.3254 120.794 55.0919 120.159C53.8766 119.506 52.9242 118.608 52.2349 117.466C51.5456 116.323 51.201 115.026 51.201 113.575C51.201 112.124 51.5456 110.827 52.2349 109.684C52.9242 108.541 53.8766 107.652 55.0919 107.017C56.3254 106.364 57.7131 106.038 59.255 106.038C60.7968 106.038 62.1754 106.364 63.3908 107.017C64.6062 107.652 65.5585 108.541 66.2478 109.684C66.9371 110.827 67.2817 112.124 67.2817 113.575C67.2817 115.026 66.9371 116.323 66.2478 117.466C65.5585 118.608 64.6062 119.506 63.3908 120.159C62.1754 120.794 60.7968 121.112 59.255 121.112ZM59.255 117.629C60.3433 117.629 61.2322 117.266 61.9215 116.541C62.6289 115.797 62.9827 114.808 62.9827 113.575C62.9827 112.341 62.6289 111.362 61.9215 110.636C61.2322 109.892 60.3433 109.521 59.255 109.521C58.1666 109.521 57.2687 109.892 56.5612 110.636C55.8538 111.362 55.5001 112.341 55.5001 113.575C55.5001 114.808 55.8538 115.797 56.5612 116.541C57.2687 117.266 58.1666 117.629 59.255 117.629ZM79.5334 121.221C77.5925 121.221 75.8329 120.803 74.2548 119.969C72.6948 119.116 71.4613 117.946 70.5543 116.459C69.6655 114.953 69.2211 113.257 69.2211 111.371C69.2211 109.484 69.6655 107.797 70.5543 106.31C71.4613 104.804 72.6948 103.634 74.2548 102.8C75.8329 101.947 77.6016 101.521 79.5606 101.521C81.2113 101.521 82.6988 101.811 84.023 102.392C85.3653 102.972 86.49 103.807 87.397 104.895L84.5672 107.507C83.2793 106.02 81.683 105.276 79.7783 105.276C78.5992 105.276 77.5471 105.539 76.622 106.065C75.6969 106.573 74.9713 107.289 74.4453 108.214C73.9374 109.14 73.6834 110.192 73.6834 111.371C73.6834 112.55 73.9374 113.602 74.4453 114.527C74.9713 115.452 75.6969 116.178 76.622 116.704C77.5471 117.212 78.5992 117.466 79.7783 117.466C81.683 117.466 83.2793 116.713 84.5672 115.207L87.397 117.819C86.49 118.926 85.3653 119.769 84.023 120.35C82.6807 120.93 81.1841 121.221 79.5334 121.221ZM95.3257 121.112C93.675 121.112 92.3871 120.676 91.462 119.806C90.5369 118.917 90.0743 117.665 90.0743 116.051V100.705H94.319V115.806C94.319 116.423 94.4732 116.903 94.7816 117.248C95.1081 117.575 95.5616 117.738 96.142 117.738C96.3597 117.738 96.5774 117.711 96.795 117.656C97.0309 117.602 97.2123 117.538 97.3392 117.466L97.5297 120.758C96.8223 120.994 96.0876 121.112 95.3257 121.112ZM106.313 121.112C104.772 121.112 103.384 120.794 102.15 120.159C100.935 119.506 99.9827 118.608 99.2934 117.466C98.6041 116.323 98.2595 115.026 98.2595 113.575C98.2595 112.124 98.6041 110.827 99.2934 109.684C99.9827 108.541 100.935 107.652 102.15 107.017C103.384 106.364 104.772 106.038 106.313 106.038C107.855 106.038 109.234 106.364 110.449 107.017C111.665 107.652 112.617 108.541 113.306 109.684C113.996 110.827 114.34 112.124 114.34 113.575C114.34 115.026 113.996 116.323 113.306 117.466C112.617 118.608 111.665 119.506 110.449 120.159C109.234 120.794 107.855 121.112 106.313 121.112ZM106.313 117.629C107.402 117.629 108.291 117.266 108.98 116.541C109.687 115.797 110.041 114.808 110.041 113.575C110.041 112.341 109.687 111.362 108.98 110.636C108.291 109.892 107.402 109.521 106.313 109.521C105.225 109.521 104.327 109.892 103.62 110.636C102.912 111.362 102.559 112.341 102.559 113.575C102.559 114.808 102.912 115.797 103.62 116.541C104.327 117.266 105.225 117.629 106.313 117.629ZM131.925 106.255V120.894H127.898V119.153C127.336 119.788 126.664 120.277 125.884 120.622C125.104 120.948 124.261 121.112 123.354 121.112C121.431 121.112 119.907 120.558 118.783 119.452C117.658 118.345 117.096 116.704 117.096 114.527V106.255H121.341V113.901C121.341 116.259 122.329 117.438 124.306 117.438C125.322 117.438 126.138 117.112 126.755 116.459C127.372 115.788 127.68 114.799 127.68 113.493V106.255H131.925ZM150.768 100.705V120.894H146.714V119.207C145.662 120.477 144.138 121.112 142.143 121.112C140.764 121.112 139.513 120.803 138.388 120.187C137.281 119.57 136.411 118.69 135.776 117.547C135.141 116.405 134.823 115.08 134.823 113.575C134.823 112.069 135.141 110.745 135.776 109.602C136.411 108.459 137.281 107.58 138.388 106.963C139.513 106.346 140.764 106.038 142.143 106.038C144.011 106.038 145.471 106.627 146.523 107.806V100.705H150.768ZM142.877 117.629C143.948 117.629 144.836 117.266 145.544 116.541C146.251 115.797 146.605 114.808 146.605 113.575C146.605 112.341 146.251 111.362 145.544 110.636C144.836 109.892 143.948 109.521 142.877 109.521C141.789 109.521 140.891 109.892 140.184 110.636C139.476 111.362 139.123 112.341 139.123 113.575C139.123 114.808 139.476 115.797 140.184 116.541C140.891 117.266 141.789 117.629 142.877 117.629Z" fill="#0085D3"/>
<defs>
<linearGradient id="paint0_linear_238_1377" x1="4.73706" y1="39.9678" x2="147.694" y2="39.9678" gradientUnits="userSpaceOnUse">
<stop stop-color="#00D6EE"/>
<stop offset="1" stop-color="#009AE1"/>
</linearGradient>
</defs>
</svg>
