<svg width="36" height="36" viewBox="0 0 36 36" fill="none" xmlns="http://www.w3.org/2000/svg">
<rect width="36" height="36" rx="18" fill="white"/>
<path d="M18.8694 23.8869L18.8685 23.8878L18.1748 24.5995C17.9787 24.8007 17.6663 24.7993 17.4746 24.6004L17.4736 24.5994L11.3993 18.3705C11.1997 18.1657 11.201 17.834 11.3984 17.6337L11.3993 17.6327L17.4736 11.4005C17.6698 11.1993 17.9822 11.2007 18.1739 11.3995L18.1739 11.3996L18.1748 11.4005L18.8685 12.1122L19.0475 11.9377L18.8685 12.1122C19.0688 12.3177 19.0651 12.6568 18.86 12.8589C18.8599 12.8589 18.8598 12.859 18.8597 12.8591L15.0951 16.5389L14.6564 16.9677H15.2698H24.2501C24.5216 16.9677 24.75 17.1927 24.75 17.4871V18.5129C24.75 18.8073 24.5216 19.0323 24.2501 19.0323H15.2698H14.6564L15.0951 19.4611L18.8603 23.1415L18.8606 23.1418C19.068 23.3436 19.0717 23.6815 18.8694 23.8869Z" fill="black" stroke="white" stroke-width="0.5"/>
</svg>
