<svg width="24" height="16" viewBox="0 0 24 16" fill="none" xmlns="http://www.w3.org/2000/svg">
<path d="M5.05 2.5V2.05H18.95V2.5C18.95 3.90833 20.0917 5.05 21.5 5.05H21.95V10.95H21.5C20.0917 10.95 18.95 12.0917 18.95 13.5V13.95H5.09138V13.5C5.09138 12.0917 3.94971 10.95 2.54138 10.95H2.05V5.05H2.5C3.90833 5.05 5.05 3.90833 5.05 2.5ZM3.5 2.05H3.95V2.5C3.95 3.30081 3.30081 3.95 2.5 3.95H2.05V3.5C2.05 2.69919 2.69919 2.05 3.5 2.05ZM3.99138 13.5V13.95H3.5C2.69919 13.95 2.05 13.3008 2.05 12.5V12.05H2.54138C3.34219 12.05 3.99138 12.6992 3.99138 13.5ZM4.54138 15.0849C4.60923 15.0849 4.67431 15.0725 4.73444 15.05H20.5C21.9083 15.05 23.05 13.9083 23.05 12.5V3.5C23.05 2.09167 21.9083 0.95 20.5 0.95H3.5C2.09167 0.95 0.95 2.09167 0.95 3.5V12.5C0.95 13.9083 2.09167 15.05 3.5 15.05H4.34832C4.40845 15.0725 4.47353 15.0849 4.54138 15.0849ZM20.5 13.95H20.05V13.5C20.05 12.6992 20.6992 12.05 21.5 12.05H21.95V12.5C21.95 13.3008 21.3008 13.95 20.5 13.95ZM20.05 2.5V2.05H20.5C21.3008 2.05 21.95 2.69919 21.95 3.5V3.95H21.5C20.6992 3.95 20.05 3.30081 20.05 2.5ZM7.95 8C7.95 10.2368 9.76325 12.05 12 12.05C14.2368 12.05 16.05 10.2368 16.05 8C16.05 5.76325 14.2368 3.95 12 3.95C9.76325 3.95 7.95 5.76325 7.95 8ZM14.95 8C14.95 9.62924 13.6292 10.95 12 10.95C10.3708 10.95 9.05 9.62924 9.05 8C9.05 6.37076 10.3708 5.05 12 5.05C13.6292 5.05 14.95 6.37076 14.95 8Z" fill="black" stroke="black" stroke-width="0.1"/>
</svg>
