<svg width="14" height="18" viewBox="0 0 14 18" fill="none" xmlns="http://www.w3.org/2000/svg">
<path d="M6.8906 17.2005C5.92642 15.8526 5.11044 14.7318 4.41933 13.7825C3.19334 12.0985 2.36033 10.9543 1.79018 10.0401C1.35415 9.341 1.10186 8.82123 0.95336 8.33767C0.806803 7.86046 0.75 7.38165 0.75 6.75C0.75 3.46175 3.52227 0.75 7 0.75C10.4777 0.75 13.25 3.46175 13.25 6.75C13.25 7.38165 13.1932 7.86046 13.0466 8.33767C12.8981 8.82123 12.6458 9.341 12.2098 10.0401C11.6397 10.9543 10.8067 12.0985 9.58068 13.7825C8.88972 14.7316 8.07393 15.8521 7.11001 17.1996C7.08995 17.2275 7.05407 17.25 7 17.25C6.9458 17.25 6.9099 17.2274 6.88987 17.1995L6.2806 17.6368L6.8906 17.2005ZM7 10.3125C8.99911 10.3125 10.6667 8.743 10.6667 6.75C10.6667 4.757 8.99911 3.1875 7 3.1875C5.00089 3.1875 3.33333 4.757 3.33333 6.75C3.33333 8.743 5.00089 10.3125 7 10.3125Z" fill="url(#paint0_linear_114_3183)" stroke="url(#paint1_linear_114_3183)" stroke-width="1.5"/>
<defs>
<linearGradient id="paint0_linear_114_3183" x1="7" y1="18" x2="7" y2="0" gradientUnits="userSpaceOnUse">
<stop stop-color="#0071C3"/>
<stop offset="1" stop-color="#33B2FF"/>
</linearGradient>
<linearGradient id="paint1_linear_114_3183" x1="7" y1="18" x2="7" y2="0" gradientUnits="userSpaceOnUse">
<stop stop-color="#0071C3"/>
<stop offset="1" stop-color="#33B2FF"/>
</linearGradient>
</defs>
</svg>
