<svg width="36" height="36" viewBox="0 0 36 36" fill="none" xmlns="http://www.w3.org/2000/svg">
<rect width="36" height="36" rx="18" fill="white"/>
<path d="M19.8459 20.6986L19.9969 20.7939L20.1361 20.6819C20.5694 20.3331 21.1176 20.125 21.7143 20.125C23.1125 20.125 24.25 21.27 24.25 22.6875C24.25 24.105 23.1125 25.25 21.7143 25.25C20.3161 25.25 19.1786 24.105 19.1786 22.6875V22.6874C19.1785 22.5001 19.1987 22.3133 19.2388 22.1305L19.2764 21.9591L19.128 21.8655L16.1541 19.9889L16.0031 19.8936L15.8639 20.0056C15.4306 20.3544 14.8824 20.5625 14.2857 20.5625C12.8875 20.5625 11.75 19.4175 11.75 18C11.75 16.5825 12.8875 15.4375 14.2857 15.4375C14.8824 15.4375 15.4306 15.6456 15.8639 15.9944L16.0031 16.1064L16.1541 16.0111L19.128 14.1345L19.2764 14.0409L19.2388 13.8695C19.1995 13.6902 19.1786 13.5039 19.1786 13.3125C19.1786 11.895 20.3161 10.75 21.7143 10.75C23.1125 10.75 24.25 11.895 24.25 13.3125C24.25 14.73 23.1125 15.875 21.7143 15.875C21.1176 15.875 20.5694 15.6669 20.1361 15.3181L19.9969 15.2061L19.8459 15.3014L16.872 17.178L16.7237 17.2716L16.7612 17.4429C16.8415 17.8098 16.8415 18.1901 16.7612 18.5571L16.7237 18.7284L16.872 18.822L19.8459 20.6986Z" fill="black" stroke="white" stroke-width="0.5"/>
</svg>
