<svg width="81" height="12" viewBox="0 0 81 12" fill="none" xmlns="http://www.w3.org/2000/svg">
<path d="M5.80262 0.417433L4.21589 3.52017L0.665805 4.01933C0.0291704 4.10838 -0.225969 4.86532 0.235712 5.29886L2.80412 7.71263L2.19664 11.1224C2.0873 11.7387 2.76038 12.2004 3.32412 11.9121L6.5 10.3021L9.67588 11.9121C10.2396 12.198 10.9127 11.7387 10.8034 11.1224L10.1959 7.71263L12.7643 5.29886C13.226 4.86532 12.9708 4.10838 12.3342 4.01933L8.78411 3.52017L7.19738 0.417433C6.91308 -0.135624 6.08935 -0.142654 5.80262 0.417433Z" fill="#FFB23F"/>
<path d="M22.8026 0.417433L21.2159 3.52017L17.6658 4.01933C17.0292 4.10838 16.774 4.86532 17.2357 5.29886L19.8041 7.71263L19.1966 11.1224C19.0873 11.7387 19.7604 12.2004 20.3241 11.9121L23.5 10.3021L26.6759 11.9121C27.2396 12.198 27.9127 11.7387 27.8034 11.1224L27.1959 7.71263L29.7643 5.29886C30.226 4.86532 29.9708 4.10838 29.3342 4.01933L25.7841 3.52017L24.1974 0.417433C23.9131 -0.135624 23.0893 -0.142654 22.8026 0.417433Z" fill="#FFB23F"/>
<path d="M39.8026 0.417433L38.2159 3.52017L34.6658 4.01933C34.0292 4.10838 33.774 4.86532 34.2357 5.29886L36.8041 7.71263L36.1966 11.1224C36.0873 11.7387 36.7604 12.2004 37.3241 11.9121L40.5 10.3021L43.6759 11.9121C44.2396 12.198 44.9127 11.7387 44.8034 11.1224L44.1959 7.71263L46.7643 5.29886C47.226 4.86532 46.9708 4.10838 46.3342 4.01933L42.7841 3.52017L41.1974 0.417433C40.9131 -0.135624 40.0893 -0.142654 39.8026 0.417433Z" fill="#FFB23F"/>
<path d="M56.8026 0.417433L55.2159 3.52017L51.6658 4.01933C51.0292 4.10838 50.774 4.86532 51.2357 5.29886L53.8041 7.71263L53.1966 11.1224C53.0873 11.7387 53.7604 12.2004 54.3241 11.9121L57.5 10.3021L60.6759 11.9121C61.2396 12.198 61.9127 11.7387 61.8034 11.1224L61.1959 7.71263L63.7643 5.29886C64.226 4.86532 63.9708 4.10838 63.3342 4.01933L59.7841 3.52017L58.1974 0.417433C57.9131 -0.135624 57.0893 -0.142654 56.8026 0.417433Z" fill="#FFB23F"/>
<path d="M73.8026 0.417433L72.2159 3.52017L68.6658 4.01933C68.0292 4.10838 67.774 4.86532 68.2357 5.29886L70.8041 7.71263L70.1966 11.1224C70.0873 11.7387 70.7604 12.2004 71.3241 11.9121L74.5 10.3021L77.6759 11.9121C78.2396 12.198 78.9127 11.7387 78.8034 11.1224L78.1959 7.71263L80.7643 5.29886C81.226 4.86532 80.9708 4.10838 80.3342 4.01933L76.7841 3.52017L75.1974 0.417433C74.9131 -0.135624 74.0893 -0.142654 73.8026 0.417433Z" fill="#FFB23F"/>
</svg>
