<svg width="36" height="36" viewBox="0 0 36 36" fill="none" xmlns="http://www.w3.org/2000/svg">
<rect width="36" height="36" rx="18" fill="white"/>
<path d="M19.1951 12.5007L19.1947 12.5011L18.5406 13.1807L18.0002 13.7423L17.4598 13.1807L16.8058 12.5011L16.8049 12.5002C15.3805 11.0152 13.1217 10.8208 11.6395 12.0944L19.1951 12.5007ZM19.1951 12.5007C20.6232 11.0148 22.8789 10.821 24.3608 12.0942C26.1145 13.6038 26.2103 16.327 24.6345 17.9668L24.6344 17.9669M19.1951 12.5007L24.6344 17.9669M24.6344 17.9669L18.2098 24.6564C18.2098 24.6564 18.2098 24.6565 18.2097 24.6565C18.0899 24.7811 17.9074 24.7812 17.7875 24.6566C17.7874 24.6565 17.7874 24.6565 17.7873 24.6564L11.3631 17.9673C11.363 17.9672 11.363 17.9671 11.3629 17.967M24.6344 17.9669L11.3629 17.967M11.3629 17.967C11.3629 17.967 11.3628 17.967 11.3628 17.9669M11.3629 17.967L11.3628 17.9669M11.3628 17.9669C9.79022 16.3272 9.88602 13.604 11.6394 12.0945L11.3628 17.9669Z" stroke="black" stroke-width="1.5"/>
</svg>
